# xmcd
#
# Track frame offsets:
#	150
#	24552
#	38952
#	62627
#	83640
#	103737
#	142200
#	171025
#	194927
#	222355
#	243050
#	268055
#
# Disc length: 3845 seconds
#
# Revision: 0
# Processed by: cddbd v1.5.1PL0 Copyright (c) Steve Scherf et al.
# Submitted via: dBpowerAMP V4.0
#
DISCID=b20f030c
DTITLE=Oscar Jordan and the Mighty Sons of Hercules - Eclectic Soul
DYEAR=2004
DGENRE=Blues
TTITLE0=Never Been Hurt
TTITLE1=Morning Affirmation
TTITLE2=Hendrix T-Shirt
TTITLE3=Rough Neck
TTITLE4=Like A Lover Should
TTITLE5=Loretta
TTITLE6=You and I
TTITLE7=I Liked You Better When You Were Drinking
TTITLE8=Be Cool
TTITLE9=Sing Your Song
TTITLE10=Ruination
TTITLE11=These Blues
EXTD=
EXTT0=
EXTT1=
EXTT2=
EXTT3=
EXTT4=
EXTT5=
EXTT6=
EXTT7=
EXTT8=
EXTT9=
EXTT10=
EXTT11=
PLAYORDER=
